<svg width="1150" height="758" viewBox="0 0 1150 758" fill="none" xmlns="http://www.w3.org/2000/svg">
<g id="bg">
<path id="o" d="M1169.5 665C1169.5 718.295 1126.3 761.5 1073 761.5C1019.7 761.5 976.5 718.295 976.5 665C976.5 611.705 1019.7 568.5 1073 568.5C1126.3 568.5 1169.5 611.705 1169.5 665Z" stroke="url(#paint0_linear)" stroke-width="59"/>
<path id="x" d="M191.082 564.606C173.608 568.71 162.787 586.197 166.911 603.666C171.036 621.134 188.545 631.969 206.019 627.866L299.347 605.951L322.128 702.431C326.253 719.899 343.762 730.734 361.236 726.631C378.71 722.528 389.531 705.041 385.406 687.572L362.625 591.092L459.133 568.431C476.607 564.328 487.428 546.84 483.303 529.371C479.178 511.903 461.669 501.068 444.195 505.171L347.688 527.833L325.657 434.532C321.532 417.063 304.023 406.229 286.549 410.332C269.076 414.435 258.254 431.922 262.379 449.391L284.41 542.691L191.082 564.606Z" fill="url(#paint1_linear)"/>
<path id="x_2" d="M-39.4751 160.245C-52.175 172.93 -52.175 193.495 -39.4751 206.179C-26.7753 218.863 -6.18489 218.863 6.51492 206.179L74.3444 138.433L144.485 208.487C157.185 221.171 177.775 221.171 190.475 208.487C203.175 195.803 203.175 175.238 190.475 162.554L120.334 92.5L190.475 22.4462C203.175 9.76208 203.175 -10.8029 190.475 -23.4869C177.775 -36.171 157.185 -36.171 144.485 -23.4869L74.3444 46.5669L6.51491 -21.1786C-6.18489 -33.8627 -26.7753 -33.8627 -39.4751 -21.1786C-52.1749 -8.49453 -52.1749 12.0704 -39.4751 24.7545L28.3543 92.5L-39.4751 160.245Z" fill="url(#paint2_linear)"/>
<path id="x_3" d="M653.002 339.1C636.006 333.329 617.567 342.434 611.817 359.437C606.066 376.44 615.183 394.903 632.179 400.674L722.954 431.498L691.196 525.406C685.446 542.409 694.562 560.872 711.558 566.643C728.554 572.414 746.993 563.309 752.744 546.306L784.502 452.398L878.37 484.273C895.366 490.044 913.806 480.939 919.556 463.936C925.306 446.933 916.19 428.47 899.194 422.699L805.325 390.824L836.037 300.011C841.788 283.008 832.671 264.546 815.675 258.774C798.679 253.003 780.24 262.108 774.49 279.111L743.778 369.925L653.002 339.1Z" fill="url(#paint3_linear)"/>
<path id="o_2" d="M1169.5 123C1169.5 176.295 1126.3 219.5 1073 219.5C1019.7 219.5 976.5 176.295 976.5 123C976.5 69.7045 1019.7 26.5 1073 26.5C1126.3 26.5 1169.5 69.7045 1169.5 123Z" stroke="url(#paint4_linear)" stroke-width="59"/>
<path id="o_3" d="M567.5 159C567.5 212.295 524.295 255.5 471 255.5C417.705 255.5 374.5 212.295 374.5 159C374.5 105.705 417.705 62.5 471 62.5C524.295 62.5 567.5 105.705 567.5 159Z" stroke="url(#paint5_linear)" stroke-width="59"/>
</g>
<defs>
<linearGradient id="paint0_linear" x1="849.452" y1="433.323" x2="1199" y2="791" gradientUnits="userSpaceOnUse">
<stop stop-color="#02AAB0"/>
<stop offset="1" stop-color="#00CDAC"/>
</linearGradient>
<linearGradient id="paint1_linear" x1="263.412" y1="382.112" x2="368.057" y2="743.074" gradientUnits="userSpaceOnUse">
<stop stop-color="#EB3349"/>
<stop offset="1" stop-color="#F45C43"/>
</linearGradient>
<linearGradient id="paint2_linear" x1="-74" y1="-33" x2="204.928" y2="218.88" gradientUnits="userSpaceOnUse">
<stop stop-color="#EB3349"/>
<stop offset="1" stop-color="#F45C43"/>
</linearGradient>
<linearGradient id="paint3_linear" x1="810.989" y1="222.584" x2="708.638" y2="584.203" gradientUnits="userSpaceOnUse">
<stop stop-color="#EB3349"/>
<stop offset="1" stop-color="#F45C43"/>
</linearGradient>
<linearGradient id="paint4_linear" x1="849.452" y1="-108.677" x2="1199" y2="249" gradientUnits="userSpaceOnUse">
<stop stop-color="#02AAB0"/>
<stop offset="1" stop-color="#00CDAC"/>
</linearGradient>
<linearGradient id="paint5_linear" x1="247.452" y1="-72.6774" x2="597" y2="285" gradientUnits="userSpaceOnUse">
<stop stop-color="#02AAB0"/>
<stop offset="1" stop-color="#00CDAC"/>
</linearGradient>
</defs>
</svg>
