<svg width="32" height="32" viewBox="0 0 32 32" fill="none" xmlns="http://www.w3.org/2000/svg">
    <path fill-rule="evenodd" clip-rule="evenodd"
        d="M1.82843 24.1716C0.266336 25.7337 0.266336 28.2663 1.82843 29.8284C3.39053 31.3905 5.92319 31.3905 7.48529 29.8284L15.8284 21.4853L24.4558 30.1127C26.0179 31.6748 28.5506 31.6748 30.1127 30.1127C31.6748 28.5506 31.6748 26.0179 30.1127 24.4558L21.4853 15.8284L30.1127 7.201C31.6748 5.6389 31.6748 3.10624 30.1127 1.54415C28.5506 -0.0179507 26.0179 -0.0179501 24.4558 1.54415L15.8284 10.1716L7.48529 1.82843C5.92319 0.266332 3.39053 0.266332 1.82843 1.82843C0.266336 3.39053 0.266337 5.92319 1.82843 7.48528L10.1716 15.8284L1.82843 24.1716Z"
        fill="url(#paint0_linear)" />
    <defs>
        <linearGradient id="paint0_linear" x1="-13.3431" y1="-2.27923" x2="31.9498" y2="31.2549"
            gradientUnits="userSpaceOnUse">
            <stop stop-color="#EB3349" />
            <stop offset="1" stop-color="#F45C43" />
        </linearGradient>
    </defs>
</svg>